<?xml version="1.0" encoding="UTF-8" standalone="no"?>
<!-- Created with Inkscape (http://www.inkscape.org/) -->

<svg
   xmlns:dc="http://purl.org/dc/elements/1.1/"
   xmlns:cc="http://creativecommons.org/ns#"
   xmlns:rdf="http://www.w3.org/1999/02/22-rdf-syntax-ns#"
   xmlns:svg="http://www.w3.org/2000/svg"
   xmlns="http://www.w3.org/2000/svg"
   xmlns:sodipodi="http://sodipodi.sourceforge.net/DTD/sodipodi-0.dtd"
   xmlns:inkscape="http://www.inkscape.org/namespaces/inkscape"
   width="351.25037"
   height="68.674225"
   viewBox="0 0 351.25037 68.674225"
   version="1.1"
   id="SVGRoot"
   inkscape:version="0.92.3 (2405546, 2018-03-11)"
   sodipodi:docname="recess-white.svg">
  <sodipodi:namedview
     id="base"
     pagecolor="#ffffff"
     bordercolor="#666666"
     borderopacity="1.0"
     inkscape:pageopacity="0.0"
     inkscape:pageshadow="2"
     inkscape:zoom="1.28"
     inkscape:cx="175.08825"
     inkscape:cy="7.4049297"
     inkscape:document-units="px"
     inkscape:current-layer="layer1"
     showgrid="false"
     inkscape:window-width="1302"
     inkscape:window-height="692"
     inkscape:window-x="326"
     inkscape:window-y="169"
     inkscape:window-maximized="0"
     showguides="false" />
  <defs
     id="defs1366" />
  <metadata
     id="metadata1369">
    <rdf:RDF>
      <cc:Work
         rdf:about="">
        <dc:format>image/svg+xml</dc:format>
        <dc:type
           rdf:resource="http://purl.org/dc/dcmitype/StillImage" />
        <dc:title></dc:title>
      </cc:Work>
    </rdf:RDF>
  </metadata>
  <g
     id="layer1"
     inkscape:groupmode="layer"
     inkscape:label="Layer 1"
     transform="translate(-29.265546,-65.559155)">
    <flowRoot
       xml:space="preserve"
       id="flowRoot5676"
       style="font-style:normal;font-weight:normal;font-size:40px;line-height:1.25;font-family:sans-serif;letter-spacing:0px;word-spacing:0px;fill:#000000;fill-opacity:1;stroke:none"><flowRegion
         id="flowRegion5678"><rect
           id="rect5680"
           width="113.8"
           height="62.976696"
           x="253.01164"
           y="81.228157" /></flowRegion><flowPara
         id="flowPara5682"
         style="font-style:normal;font-variant:normal;font-weight:normal;font-stretch:normal;font-family:Luna;-inkscape-font-specification:Luna">cams</flowPara></flowRoot>    <flowRoot
       xml:space="preserve"
       id="flowRoot5668-9"
       style="font-style:normal;font-variant:normal;font-weight:normal;font-stretch:normal;font-size:40px;line-height:1.25;font-family:Luna;-inkscape-font-specification:Luna;letter-spacing:0px;word-spacing:0px;fill:#000000;fill-opacity:1;stroke:none"
       transform="translate(206.55243,19.760639)"><flowRegion
         id="flowRegion5670-4"
         style="font-style:normal;font-variant:normal;font-weight:normal;font-stretch:normal;font-family:Luna;-inkscape-font-specification:Luna"><rect
           id="rect5672-9"
           width="186.16795"
           height="114.90486"
           x="32.040775"
           y="70.73204"
           style="font-style:normal;font-variant:normal;font-weight:normal;font-stretch:normal;font-family:Luna;-inkscape-font-specification:Luna" /></flowRegion><flowPara
         id="flowPara5674-3">FAcNaCAMs</flowPara></flowRoot>    <g
       aria-label="Recess"
       transform="matrix(1.0960296,0,0,0.93486171,109.60022,89.189589)"
       style="font-style:normal;font-variant:normal;font-weight:normal;font-stretch:normal;font-size:40px;line-height:1.25;font-family:Luna;-inkscape-font-specification:Luna;letter-spacing:0px;word-spacing:0px;fill:#ffffff;fill-opacity:1;stroke:none"
       id="flowRoot5744">
      <path
         d="m 10.58875,38.412573 q -0.44,-0.36 -0.68,-0.8 -0.2,-0.48 -0.36,-0.96 -0.08,-0.32 -0.16,-0.64 -0.08,-0.32 -0.16,-0.64 -0.4,-1.08 -0.56,-2.16 -0.12,-1.12 -0.28,-2.28 -0.2,-1.92 -0.44,-3.8 -0.2,-1.92 -0.4,-3.84 -0.2,-1.8 -0.4,-3.52 -0.16,-1.72 -0.36,-3.52 -0.4,-3.12 -0.56,-6.2 -0.16,-3.0799997 -0.32,-6.1999997 -0.28,-0.52 -0.16,-1 0.12,-0.52 0.08,-1.08 -0.04,-1.04000004 -0.12,-2.04000004 -0.04,-1.03999996 -0.08,-2.07999996 -0.08,-1.08 -0.08,-2.16 0,-1.12 -0.04,-2.2 0,-0.12 0.04,-0.24 0.04,-0.16 0,-0.28 -0.24,-0.92 0.2,-1.6 0.44,-0.68 1,-1.3200003 0.12,-0.16 0.36,-0.16 0.48,-0.04 0.92,-0.04 0.48,-0.04 0.92,0.04 0.64,0.08 1.12,0.5200003 0.48,0.44 0.6,1.12 0.12,0.88 0.2,1.76 0.12,0.84 0.24,1.72 0,0.12 0,0.28 0.04,0.12 0.08,0.32 0.92,-1.16 1.76,-2.24 0.88,-1.08 1.8,-2.12 1.28,-1.4400003 2.72,-2.6800003 1.48,-1.24 3.2,-2.16 2.4,-1.28 4.96,-1.24 0.92,0.04 1.56,0.44 0.68,0.36 1.04,1.28 0.2,0.48 0.28,0.96 0.08,0.44 0,0.96 -0.12,1.8800003 -0.88,3.4400003 -0.76,1.56 -2,2.92 -2.08,2.28 -4.52,4.07999996 -2.44,1.8 -5.16,3.24000004 -0.32,0.2 -0.64,0.4 -0.32,0.16 -0.72,0.36 0.12,0.16 0.2,0.32 0.12,0.12 0.28,0.24 2.68,2.64 5.08,5.76 1.12,1.4799997 2.08,3.0399997 0.96,1.56 1.8,3.2 1.04,1.96 1.68,4.04 0.64,2.04 1.16,4.16 0.4,1.6 0.72,3.2 0.36,1.56 0.68,3.16 0.28,1.4 0.36,2.84 0.08,1.4 -0.16,2.84 -0.08,0.44 -0.16,0.88 -0.04,0.4 -0.12,0.84 -0.2,0.44 -0.44,0.72 -0.24,0.28 -0.6,0.44 -0.32,0.16 -0.84,0.04 -1.2,-1.2 -1.6,-2.68 -0.32,-1.32 -0.64,-2.64 -0.28,-1.36 -0.52,-2.68 -0.56,-3.04 -1.28,-6 -0.72,-3 -1.84,-5.88 -1.12,-2.96 -2.68,-5.64 -1.52,-2.72 -3.72,-5.0399997 -0.52,-0.56 -1.04,-1.12 -0.48,-0.6 -1.08,-1.28 0,0.24 -0.04,0.4 0,0.12 0,0.2 0.08,0.92 0.16,1.88 0.08,0.92 0.2,1.8399997 0.2,1.8 0.44,3.52 0.28,1.72 0.52,3.52 0.32,2.08 0.64,4.16 0.32,2.04 0.56,4.12 0.2,1.48 0.28,2.96 0.12,1.44 0.12,2.92 0.04,1.04 -0.12,2 -0.16,0.96 -0.32,1.96 -0.08,0.56 -0.2,1.16 -0.08,0.56 -0.28,1.12 -0.2,0.52 -0.84,0.96 -0.64,0.4 -1.2,0.32 -0.24,-0.08 -0.44,-0.12 -0.2,-0.08 -0.4,-0.16 -0.2,-0.08 -0.4,-0.16 z m 0.84,-38.39999974 q 0.04,0.08 0.12,0.16 0.4,-0.2 0.76,-0.44 0.4,-0.24 0.8,-0.44 1.96,-1.15999996 3.88,-2.31999996 1.96,-1.16 3.76,-2.56 0.84,-0.68 1.68,-1.32 0.84,-0.68 1.52,-1.52 0.64,-0.8 1,-1.6800003 0.4,-0.88 0.36,-1.92 -0.04,-0.44 -0.2,-0.56 -0.12,-0.16 -0.56,0 -1.36,0.44 -2.4,1 -1.8,0.92 -3.28,2.2400003 -1.44,1.32 -2.68,2.88 -1.16,1.48 -2.28,2.96 -1.08,1.48 -2.16,2.99999996 -0.12,0.12 -0.2,0.28 -0.04,0.12 -0.12,0.24 z"
         style="fill:#ffffff"
         id="path5776" />
      <path
         d="m 58.72625,22.612573 q -0.76,1.68 -1.56,3.32 -0.76,1.64 -1.64,3.28 -0.8,1.56 -1.84,3 -1,1.4 -2.16,2.72 -1.76,2.08 -4,3.16 -2.2,1.04 -5.08,0.72 -3,-0.32 -5.12,-1.88 -2.12,-1.56 -3.52,-4.2 -0.96,-1.92 -1.52,-3.88 -0.52,-2 -0.72,-4.12 -0.2,-1.64 -0.16,-3.24 0,-1.6 0.08,-3.24 0.08,-1.68 0.36,-3.32 0.28,-1.64 0.76,-3.28 0.68,-2.3999997 1.64,-4.6399997 1,-2.24 2.6,-4.2 0.96,-1.2 2.12,-2.12000004 1.16,-0.96 2.52,-1.68 1.16,-0.59999996 2.36,-0.95999996 1.24,-0.4 2.52,-0.48 1.44,-0.08 2.84,0.16 1.4,0.24 2.68,1.16 0.32,0.23999996 0.64,0.47999996 0.36,0.2 0.72,0.4 1.24,0.8 2.12,1.92000004 0.92,1.12 1.68,2.4 0.76,1.28 0.96,2.72 0.2,1.44 -0.08,2.96 -0.96,4.9599997 -4.68,8.5199997 -1.08,1.04 -2.2,2.04 -1.12,0.96 -2.36,1.8 -1.76,1.16 -3.68,1.88 -1.88,0.72 -4.04,0.8 -0.04,0 -0.36,0.08 0.28,1.72 0.84,3.24 0.56,1.52 1.64,2.8 0.92,1.04 2.04,1.56 1.16,0.52 2.52,0.6 0.56,0.04 0.96,-0.2 0.44,-0.28 0.88,-0.6 0.92,-0.8 1.68,-1.72 0.76,-0.96 1.4,-2 0.92,-1.4 1.68,-2.84 0.76,-1.44 1.36,-2.96 0.32,-0.72 0.72,-1.2 0.44,-0.52 1.24,-0.64 0.48,0.04 0.84,0.24 0.28,0.2 0.44,0.56 0.16,0.32 -0.12,0.88 z m -18.48,-0.04 q 0.52,-0.08 0.92,-0.12 0.44,-0.04 0.84,-0.16 1.4,-0.32 2.64,-0.92 1.28,-0.64 2.4,-1.48 0.92,-0.68 1.76,-1.36 0.84,-0.72 1.64,-1.48 1.68,-1.52 2.64,-3.44 0.96,-1.92 1.32,-4.1199997 0.2,-1 0,-1.88 -0.2,-0.92 -0.88,-1.72 -1.28,-1.52 -3.04,-1.96 -1.72,-0.48 -3.52,0.4 -1.56,0.76 -2.72,2 -1.12,1.2 -1.88,2.72 -1.28,2.5599997 -1.84,5.4799997 -0.32,1.56 -0.48,3.12 -0.12,1.56 -0.04,3.16 0.04,0.44 0.08,0.88 0.08,0.4 0.16,0.88 z"
         style="fill:#ffffff"
         id="path5778" />
      <path
         d="m 87.39125,6.7325733 q -0.44,0.08 -0.72,0.08 -0.24,0 -0.4,-0.08 -0.16,-0.08 -0.28,-0.28 -0.12,-0.2 -0.32,-0.6 -0.08,-0.16 -0.16,-0.28 -0.96,-0.88 -2,-1.68 -1,-0.8 -2.28,-1.12 -0.44,-0.12 -0.88,-0.12 -0.4,0 -0.84,-0.04 -0.24,0 -0.68,0.08 -0.4,0.04 -0.84,0.16 -0.44,0.12 -0.8,0.28 -0.36,0.12 -0.48,0.28 -1.72,2.44 -3.12,5 -1.36,2.5599997 -1.88,5.5599997 -0.52,2.72 -0.76,5.44 -0.2,2.68 0.12,5.44 0.16,1.44 0.32,2.8 0.2,1.36 1.2,2.48 0.44,0.52 0.8,0.92 0.36,0.4 0.88,0.84 0.2,0.16 0.72,0.24 0.52,0.04 1.12,0.04 0.6,0 1.12,-0.08 0.56,-0.08 0.76,-0.2 0.84,-0.48 1.44,-1.16 0.64,-0.72 1.16,-1.52 0.36,-0.56 0.64,-1.2 0.28,-0.64 0.6,-1.28 0.32,-0.68 0.64,-1.32 0.32,-0.68 0.92,-1.2 0.44,-0.36 0.92,-0.24 0.48,0.08 0.64,0.64 0.16,0.48 0.2,1 0.04,0.48 -0.16,1 -0.44,1.4 -0.92,2.76 -0.48,1.36 -1.16,2.64 -0.76,1.4 -1.76,2.64 -1,1.24 -2.28,2.16 -3.08,2.28 -6.24,2.12 -3.12,-0.16 -5.96,-2.88 -2.04,-1.92 -3.04,-4.32 -1,-2.4 -1.32,-5.16 -0.36,-3.04 -0.04,-6 0.32,-2.96 1,-5.92 0.52,-2.16 1.16,-4.24 0.68,-2.0799997 1.68,-4.0399997 1.72,-3.36 4.28,-5.60000004 2.6,-2.23999996 6.4,-2.91999996 0.8,-0.16 1.68,-0.08 0.88,0.04 1.72,0.16 1.44,0.2 2.8,0.68 1.36,0.47999996 2.52,1.43999996 0.6,0.56 1.2,1.16000004 0.64,0.56 1,1.28 0.48,1.04 0.48,2.16 0,1.08 -0.8,2.08 z"
         style="fill:#ffffff"
         id="path5780" />
      <path
         d="m 118.57,22.612573 q -0.76,1.68 -1.56,3.32 -0.76,1.64 -1.64,3.28 -0.8,1.56 -1.84,3 -1,1.4 -2.16,2.72 -1.76,2.08 -4,3.16 -2.2,1.04 -5.08,0.72 -3,-0.32 -5.12,-1.88 -2.12,-1.56 -3.52,-4.2 -0.96,-1.92 -1.52,-3.88 -0.52,-2 -0.72,-4.12 -0.2,-1.64 -0.16,-3.24 0,-1.6 0.08,-3.24 0.08,-1.68 0.36,-3.32 0.28,-1.64 0.76,-3.28 0.68,-2.3999997 1.64,-4.6399997 1,-2.24 2.6,-4.2 0.96,-1.2 2.12,-2.12000004 1.16,-0.96 2.52,-1.68 1.16,-0.59999996 2.36,-0.95999996 1.24,-0.4 2.52,-0.48 1.44,-0.08 2.84,0.16 1.4,0.24 2.68,1.16 0.32,0.23999996 0.64,0.47999996 0.36,0.2 0.72,0.4 1.24,0.8 2.12,1.92000004 0.92,1.12 1.68,2.4 0.76,1.28 0.96,2.72 0.2,1.44 -0.08,2.96 -0.96,4.9599997 -4.68,8.5199997 -1.08,1.04 -2.2,2.04 -1.12,0.96 -2.36,1.8 -1.76,1.16 -3.68,1.88 -1.88,0.72 -4.04,0.8 -0.04,0 -0.36,0.08 0.28,1.72 0.84,3.24 0.56,1.52 1.64,2.8 0.92,1.04 2.04,1.56 1.16,0.52 2.52,0.6 0.56,0.04 0.96,-0.2 0.44,-0.28 0.88,-0.6 0.92,-0.8 1.68,-1.72 0.76,-0.96 1.4,-2 0.92,-1.4 1.68,-2.84 0.76,-1.44 1.36,-2.96 0.32,-0.72 0.72,-1.2 0.44,-0.52 1.24,-0.64 0.48,0.04 0.84,0.24 0.28,0.2 0.44,0.56 0.16,0.32 -0.12,0.88 z m -18.48,-0.04 q 0.52,-0.08 0.92,-0.12 0.44,-0.04 0.84,-0.16 1.4,-0.32 2.64,-0.92 1.28,-0.64 2.4,-1.48 0.92,-0.68 1.76,-1.36 0.84,-0.72 1.64,-1.48 1.68,-1.52 2.64,-3.44 0.96,-1.92 1.32,-4.1199997 0.2,-1 0,-1.88 -0.2,-0.92 -0.88,-1.72 -1.28,-1.52 -3.04,-1.96 -1.72,-0.48 -3.52,0.4 -1.56,0.76 -2.72,2 -1.12,1.2 -1.88,2.72 -1.28,2.5599997 -1.84,5.4799997 -0.32,1.56 -0.48,3.12 -0.12,1.56 -0.04,3.16 0.04,0.44 0.08,0.88 0.08,0.4 0.16,0.88 z"
         style="fill:#ffffff"
         id="path5782" />
      <path
         d="m 123.635,21.612573 q 0.96,0.88 1.72,1.8 0.8,0.92 1.04,2.24 0.2,1.16 0.52,2.28 0.32,1.08 1,2.08 0.44,0.6 0.92,1.08 0.48,0.44 1.04,0.88 0.48,0.36 1.04,0.48 0.56,0.08 1.12,0.04 0.48,-0.08 0.8,-0.32 0.48,-0.44 0.88,-0.96 0.4,-0.52 0.6,-1.2 0.56,-1.88 0.64,-3.76 0.08,-1.88 -0.48,-3.8 -0.32,-1.2 -0.88,-2.24 -0.56,-1.08 -1.24,-2.08 -0.8,-1.12 -1.6,-2.2 -0.76,-1.08 -1.44,-2.24 -0.84,-1.4 -1.56,-2.84 -0.68,-1.4399997 -1.08,-3.0399997 -0.28,-1.2 -0.2,-2.44 0.08,-1.24 0.48,-2.4 0.44,-1.2 1.16,-2.20000004 0.76,-1 1.8,-1.72 0.32,-0.19999996 0.64,-0.39999996 0.32,-0.2 0.64,-0.4 0.92,-0.56 1.96,-0.68 1.08,-0.16 2.08,0.08 1.04,0.2 1.96,0.68 0.92,0.48 1.6,1.11999996 1.4,1.36 2.6,3.04000004 0.44,0.6 0.72,1.28 0.32,0.64 0.64,1.32 0.2,0.44 0.36,0.84 0.16,0.4 0.36,0.84 0.24,0.56 -0.16,1.08 -0.12,0.2 -0.28,0.32 -0.16,0.12 -0.44,0.04 -0.56,-0.04 -0.6,-0.6 -0.08,-0.36 -0.16,-0.72 -0.04,-0.36 -0.16,-0.68 -0.52,-1.28 -1.32,-2.36 -0.8,-1.08 -1.96,-1.84 -0.48,-0.32 -1.08,-0.48 -0.6,-0.2 -1.16,-0.36 -0.36,-0.08 -0.72,0.04 -0.36,0.08 -0.64,0.4 -0.76,0.88 -1.24,1.88 -0.48,0.96 -0.56,2.12 -0.04,0.56 0.12,1.08 0.16,0.52 0.4,0.96 0.8,1.6 1.72,3.0799997 0.96,1.44 1.96,2.88 0.8,1.08 1.52,2.2 0.72,1.12 1.36,2.32 1.72,3.2 1.92,6.84 0.08,1.92 -0.12,3.76 -0.16,1.8 -0.72,3.6 -0.56,2.12 -1.8,3.68 -1.2,1.52 -3.28,2.4 -0.88,0.36 -1.76,0.4 -0.88,0.04 -1.8,-0.04 -2.84,-0.24 -5.12,-1.8 -0.88,-0.64 -1.64,-1.4 -0.72,-0.76 -1.4,-1.56 -1.64,-2.12 -2.28,-4.72 -0.28,-1.08 -0.2,-2.12 0.12,-1.08 0.44,-2.12 0.28,-0.88 0.64,-1.68 0.36,-0.84 0.68,-1.76 z"
         style="fill:#ffffff"
         id="path5784" />
      <path
         d="m 148.24437,21.612573 q 0.96,0.88 1.72,1.8 0.8,0.92 1.04,2.24 0.2,1.16 0.52,2.28 0.32001,1.08 1,2.08 0.44,0.6 0.92,1.08 0.48,0.44 1.04,0.88 0.48,0.36 1.04,0.48 0.56,0.08 1.12,0.04 0.48,-0.08 0.8,-0.32 0.48,-0.44 0.88,-0.96 0.4,-0.52 0.6,-1.2 0.56,-1.88 0.64,-3.76 0.08,-1.88 -0.48,-3.8 -0.32,-1.2 -0.88,-2.24 -0.56,-1.08 -1.24,-2.08 -0.8,-1.12 -1.6,-2.2 -0.76,-1.08 -1.44,-2.24 -0.84,-1.4 -1.56,-2.84 -0.68,-1.4399997 -1.08,-3.0399997 -0.28,-1.2 -0.2,-2.44 0.08,-1.24 0.48,-2.4 0.44,-1.2 1.16,-2.20000004 0.76,-1 1.8,-1.72 0.32001,-0.19999996 0.64,-0.39999996 0.32,-0.2 0.64,-0.4 0.92,-0.56 1.96,-0.68 1.08001,-0.16 2.08001,0.08 1.03999,0.2 1.95999,0.68 0.92,0.48 1.6,1.11999996 1.4,1.36 2.6,3.04000004 0.44,0.6 0.72,1.28 0.32,0.64 0.64,1.32 0.2,0.44 0.36,0.84 0.16,0.4 0.36,0.84 0.24,0.56 -0.16,1.08 -0.12,0.2 -0.28,0.32 -0.16,0.12 -0.44,0.04 -0.56,-0.04 -0.6,-0.6 -0.08,-0.36 -0.16,-0.72 -0.04,-0.36 -0.16,-0.68 -0.52,-1.28 -1.32,-2.36 -0.8,-1.08 -1.96,-1.84 -0.48,-0.32 -1.08,-0.48 -0.6,-0.2 -1.16,-0.36 -0.35999,-0.08 -0.72,0.04 -0.36,0.08 -0.64,0.4 -0.76,0.88 -1.24,1.88 -0.48,0.96 -0.56,2.12 -0.04,0.56 0.12,1.08 0.16,0.52 0.4,0.96 0.8,1.6 1.72001,3.0799997 0.95999,1.44 1.95999,2.88 0.8,1.08 1.52,2.2 0.72,1.12 1.36,2.32 1.72001,3.2 1.92,6.84 0.08,1.92 -0.12,3.76 -0.16,1.8 -0.72,3.6 -0.56,2.12 -1.8,3.68 -1.2,1.52 -3.28,2.4 -0.88,0.36 -1.76,0.4 -0.88,0.04 -1.8,-0.04 -2.84,-0.24 -5.12,-1.8 -0.88,-0.64 -1.64,-1.4 -0.72,-0.76 -1.4,-1.56 -1.64,-2.12 -2.28,-4.72 -0.28,-1.08 -0.2,-2.12 0.12,-1.08 0.44,-2.12 0.28,-0.88 0.64,-1.68 0.36,-0.84 0.68,-1.76 z"
         style="fill:#ffffff"
         id="path5786" />
    </g>
  </g>
</svg>
